<?xml version="1.0" encoding="UTF-8" standalone="no"?>
<svg width="18px" height="18px" viewBox="0 0 46 46" version="1.1" xmlns="http://www.w3.org/2000/svg" xmlns:xlink="http://www.w3.org/1999/xlink">
    <g stroke="none" stroke-width="1" fill="none" fill-rule="evenodd">
        <path d="M31.64,23.20571429 C31.64,22.57714286 31.5827143,21.97142857 31.4762857,21.38857143 L23,21.38857143 L23,24.845714289999998 L27.8414286,24.845714289999998 C27.635714299999997,25.97142857 26.9514286,26.9228571399999996 25.8885714,27.5614286 L25.8885714,29.8195238095238 L28.6571429,29.8195238095238 C30.4571429,28.1714286 31.64,25.9285714 31.64,23.20571429 Z" fill="#4285F4"></path>
        <path d="M23,32 C25.295,32 27.2342857,31.1571429 28.6571429,29.8195238 L25.8885714,27.5614286 C25.0228571,28.1214286 24.0171429,28.4585714 23,28.4585714 C20.6557143,28.4585714 18.6757143,26.8442857 17.9642857,24.71 L15.0928571,24.71 L15.0928571,27.0418095 C16.4928571,29.9833333 19.5142857,32 23,32 Z" fill="#34A853"></path>
        <path d="M17.9642857,24.71 C17.7842857,24.17 17.6814286,23.5957143 17.6814286,23 C17.6814286,22.4042857 17.7842857,21.83 17.9642857,21.29 L17.9642857,18.9581905 L15.0928571,18.9581905 C14.3971429,20.1733333 14,21.5457143 14,23 C14,24.4542857 14.3971429,25.8266667 15.0928571,27.0418095 L17.9642857,24.71 Z" fill="#FBBC05"></path>
        <path d="M23,17.5414286 C24.3214286,17.5414286 25.5077143,18.0328571 26.4405714,18.9252381 L28.9357143,16.43 C27.2342857,14.8442857 25.295,14 23,14 C19.5142857,14 16.4928571,16.0166667 15.0928571,18.9581905 L17.9642857,21.29 C18.6757143,19.1557143 20.6557143,17.5414286 23,17.5414286 Z" fill="#EA4335"></path>
    </g>
</svg>
